<mxfile host="app.diagrams.net" modified="2023-09-26T16:57:29.846Z" agent="Mozilla/5.0 (Windows NT 10.0; Win64; x64) AppleWebKit/537.36 (KHTML, like Gecko) Chrome/116.0.0.0 Safari/537.36" etag="HBGRy0M-b7YhMYbaObX8" version="21.7.5" type="device">
  <diagram name="Trang-1" id="Iw1SAzZGr9NIa5nflJKZ">
    <mxGraphModel dx="2269" dy="1326" grid="1" gridSize="10" guides="1" tooltips="1" connect="1" arrows="1" fold="1" page="1" pageScale="1" pageWidth="900" pageHeight="1600" math="0" shadow="0">
      <root>
        <mxCell id="0" />
        <mxCell id="1" parent="0" />
        <mxCell id="3vvKGWkX47X9iwD8alQG-16" value="" style="rounded=1;whiteSpace=wrap;html=1;" vertex="1" parent="1">
          <mxGeometry x="91" y="40" width="710" height="520" as="geometry" />
        </mxCell>
        <mxCell id="3vvKGWkX47X9iwD8alQG-1" value="" style="html=1;verticalLabelPosition=bottom;align=center;labelBackgroundColor=#ffffff;verticalAlign=top;strokeWidth=2;strokeColor=#0080F0;shadow=0;dashed=0;shape=mxgraph.ios7.icons.smartphone;" vertex="1" parent="1">
          <mxGeometry x="548" y="100" width="50" height="70" as="geometry" />
        </mxCell>
        <mxCell id="3vvKGWkX47X9iwD8alQG-4" value="" style="strokeWidth=2;html=1;shape=mxgraph.flowchart.multi-document;whiteSpace=wrap;" vertex="1" parent="1">
          <mxGeometry x="298" y="105" width="88" height="60" as="geometry" />
        </mxCell>
        <mxCell id="3vvKGWkX47X9iwD8alQG-7" value="TTPOS SERVER" style="rounded=1;whiteSpace=wrap;html=1;" vertex="1" parent="1">
          <mxGeometry x="301" y="327" width="307" height="60" as="geometry" />
        </mxCell>
        <mxCell id="3vvKGWkX47X9iwD8alQG-8" value="" style="image;aspect=fixed;perimeter=ellipsePerimeter;html=1;align=center;shadow=0;dashed=0;spacingTop=3;image=img/lib/active_directory/databases.svg;" vertex="1" parent="1">
          <mxGeometry x="438" y="455" width="50" height="49" as="geometry" />
        </mxCell>
        <mxCell id="3vvKGWkX47X9iwD8alQG-9" value="MySQL Server" style="text;html=1;strokeColor=none;fillColor=none;align=center;verticalAlign=middle;whiteSpace=wrap;rounded=0;" vertex="1" parent="1">
          <mxGeometry x="420.5" y="504" width="85" height="30" as="geometry" />
        </mxCell>
        <mxCell id="3vvKGWkX47X9iwD8alQG-10" value="" style="endArrow=classic;startArrow=classic;html=1;rounded=0;exitX=0.5;exitY=0;exitDx=0;exitDy=0;" edge="1" parent="1" source="3vvKGWkX47X9iwD8alQG-8">
          <mxGeometry width="50" height="50" relative="1" as="geometry">
            <mxPoint x="468" y="410" as="sourcePoint" />
            <mxPoint x="463" y="390" as="targetPoint" />
          </mxGeometry>
        </mxCell>
        <mxCell id="3vvKGWkX47X9iwD8alQG-11" value="" style="endArrow=classic;startArrow=classic;html=1;rounded=0;" edge="1" parent="1">
          <mxGeometry width="50" height="50" relative="1" as="geometry">
            <mxPoint x="458" y="320" as="sourcePoint" />
            <mxPoint x="538" y="150" as="targetPoint" />
          </mxGeometry>
        </mxCell>
        <mxCell id="3vvKGWkX47X9iwD8alQG-12" value="" style="endArrow=classic;startArrow=classic;html=1;rounded=0;entryX=1.042;entryY=0.706;entryDx=0;entryDy=0;entryPerimeter=0;" edge="1" parent="1" target="3vvKGWkX47X9iwD8alQG-4">
          <mxGeometry width="50" height="50" relative="1" as="geometry">
            <mxPoint x="448" y="320" as="sourcePoint" />
            <mxPoint x="518" y="260" as="targetPoint" />
          </mxGeometry>
        </mxCell>
        <mxCell id="3vvKGWkX47X9iwD8alQG-13" value="&lt;h1&gt;Mobile App&lt;/h1&gt;&lt;p&gt;- Bán hàng&lt;/p&gt;&lt;p&gt;- Xem thống kê doanh thu&lt;/p&gt;" style="text;html=1;strokeColor=none;fillColor=none;spacing=3;spacingTop=-23;whiteSpace=wrap;overflow=hidden;rounded=0;verticalAlign=middle;" vertex="1" parent="1">
          <mxGeometry x="608" y="90" width="190" height="120" as="geometry" />
        </mxCell>
        <mxCell id="3vvKGWkX47X9iwD8alQG-14" value="&lt;h1&gt;Web Browser&lt;/h1&gt;&lt;p&gt;- CMS quản lý&lt;/p&gt;&lt;p&gt;- Bán hàng&lt;/p&gt;&lt;p&gt;- Xem thống kê&lt;/p&gt;" style="text;html=1;strokeColor=none;fillColor=none;spacing=3;spacingTop=-23;whiteSpace=wrap;overflow=hidden;rounded=0;verticalAlign=middle;" vertex="1" parent="1">
          <mxGeometry x="122" y="92" width="190" height="120" as="geometry" />
        </mxCell>
      </root>
    </mxGraphModel>
  </diagram>
</mxfile>
